<?xml version="1.0" standalone="no"?>
<!DOCTYPE svg PUBLIC "-//W3C//DTD SVG 20010904//EN"
 "http://www.w3.org/TR/2001/REC-SVG-20010904/DTD/svg10.dtd">
<svg version="1.0" xmlns="http://www.w3.org/2000/svg"
 width="40.000000pt" height="40.000000pt" viewBox="0 0 40.000000 40.000000"
 preserveAspectRatio="xMidYMid meet">
<metadata>
Created by potrace 1.16, written by Peter Selinger 2001-2019
</metadata>
<g transform="translate(0.000000,40.000000) scale(0.022222,-0.022222)"
fill="#000000" stroke="none">
<path d="M640 1530 l0 -200 73 0 72 0 42 -49 43 -49 -53 -7 c-128 -18 -249
-75 -287 -137 -16 -25 -20 -46 -18 -84 3 -44 0 -55 -21 -71 -20 -16 -25 -32
-32 -104 -4 -46 -8 -85 -8 -86 -1 -2 -10 -3 -20 -3 -34 0 -51 -38 -45 -96 6
-45 3 -58 -22 -102 -24 -44 -26 -54 -16 -76 6 -14 20 -26 30 -26 29 0 34 -11
16 -38 -41 -63 -37 -134 12 -192 50 -59 141 -87 231 -70 51 9 57 8 87 -15 92
-70 226 -73 299 -7 14 13 34 16 80 14 74 -4 144 16 194 53 34 27 83 112 83
148 0 10 11 40 25 67 14 27 25 60 25 73 0 13 6 29 12 35 7 7 13 38 13 72 0 63
-21 104 -63 126 -12 6 -30 18 -40 27 -10 10 -26 17 -35 17 -18 0 -20 12 -17
87 2 50 -19 94 -55 113 -23 12 -25 18 -20 52 19 109 -100 203 -285 224 -33 4
-60 9 -60 11 0 2 17 24 37 49 l37 44 68 0 67 0 3 200 3 200 -227 0 -228 0 0
-200z m440 5 l0 -185 -64 0 c-64 0 -64 0 -105 -47 l-40 -48 -41 48 c-42 47
-42 47 -106 47 l-64 0 0 185 0 185 210 0 210 0 0 -185z m-20 -350 c98 -39 152
-101 148 -170 -2 -30 -7 -39 -18 -36 -48 11 -103 12 -130 1 -35 -15 -85 -68
-107 -116 -16 -32 -17 -32 -30 -15 -19 29 -68 36 -99 16 -14 -9 -26 -15 -27
-13 -31 63 -48 85 -77 104 -49 33 -88 38 -140 20 -24 -8 -47 -13 -50 -10 -3 3
-5 25 -4 49 2 81 73 141 214 180 75 20 258 15 320 -10z m-366 -238 c58 -32 77
-72 83 -171 5 -79 4 -84 -15 -90 -12 -4 -33 -21 -47 -37 -21 -26 -25 -40 -24
-92 1 -105 48 -202 80 -170 7 7 14 34 17 62 l4 50 30 -15 c28 -15 46 -14 102
2 16 5 17 2 11 -35 -8 -46 6 -74 32 -64 23 9 83 142 83 184 0 43 -27 81 -70
99 -28 11 -30 16 -30 62 0 106 48 198 120 228 45 18 145 -4 183 -41 23 -24 27
-35 27 -88 l0 -61 -27 6 c-41 10 -44 13 -33 34 16 29 12 49 -15 75 -44 45
-116 29 -141 -30 -14 -35 -11 -58 13 -87 13 -14 12 -18 -5 -27 -11 -6 -22 -17
-25 -25 -3 -8 13 -2 37 16 58 40 119 47 173 20 36 -19 55 -44 76 -102 4 -10 6
-8 6 7 1 12 -4 34 -9 49 -9 23 -9 25 4 15 12 -10 15 -39 14 -144 -1 -150 -7
-166 -69 -191 -52 -21 -85 -20 -137 4 -23 11 -40 15 -36 9 4 -6 27 -20 51 -31
54 -24 117 -18 157 13 34 27 33 11 -3 -38 -39 -54 -68 -73 -111 -73 -53 0 -77
9 -88 35 -6 12 -24 27 -42 33 -26 10 -34 8 -50 -8 -42 -42 -6 -92 63 -89 23 1
55 -4 70 -10 36 -14 102 -14 128 0 11 5 34 29 50 52 24 32 30 36 24 17 -26
-91 -115 -150 -227 -150 -54 0 -68 3 -68 15 0 10 -12 2 -31 -20 -38 -43 -120
-71 -183 -61 -51 9 -117 47 -145 83 -15 21 -20 24 -21 11 0 -23 -36 -31 -108
-26 -116 9 -187 71 -187 164 0 36 5 58 18 72 18 20 19 20 50 2 18 -10 46 -21
64 -25 35 -7 107 11 124 31 8 9 -1 9 -29 -3 -60 -23 -126 -11 -168 31 -40 40
-48 70 -39 143 6 49 9 54 18 38 6 -11 13 -29 14 -40 13 -81 122 -112 173 -48
32 40 27 95 -11 127 -17 14 -41 26 -53 26 -41 0 -86 -22 -100 -48 l-14 -26 -7
32 c-16 77 97 170 173 141 15 -6 39 -22 55 -37 15 -14 27 -21 27 -15 0 5 -9
18 -20 28 -19 17 -19 18 0 43 28 35 26 87 -3 107 -51 33 -133 -17 -125 -77 4
-23 0 -29 -25 -38 -17 -5 -30 -10 -31 -10 -1 0 0 29 2 64 4 74 12 84 87 115
64 26 81 26 129 -2z"/>
<path d="M746 1168 c-17 -26 -33 -87 -38 -138 l-3 -35 173 0 173 0 -6 45 c-4
24 -16 68 -27 97 l-19 53 -119 0 c-113 0 -120 -1 -134 -22z m265 -45 c9 -28
19 -65 21 -82 l3 -30 -158 -4 -157 -4 0 25 c0 14 7 52 16 83 l16 58 87 4 c161
6 152 9 172 -50z"/>
<path d="M1183 663 c-29 -5 -73 -58 -73 -87 0 -58 81 -102 137 -73 33 17 57
62 51 98 -5 38 -67 71 -115 62z"/>
</g>
</svg>
